
	<svg xmlns="http://www.w3.org/2000/svg" xmlns:xlink="http://www.w3.org/1999/xlink" version="1.1" width="128" height="128" viewBox="0 0 100 100">


		<defs>
			<linearGradient id="Gradient_2" gradientUnits="userSpaceOnUse" x1="10" y1="82" x2="78" y2="82" spreadMethod="pad">
<stop offset="0%" stop-color="#000000" stop-opacity="0.3"/>
<stop offset="100%" stop-color="#000000" stop-opacity="0.1"/>
</linearGradient><linearGradient id="Gradient_3" gradientUnits="userSpaceOnUse" x1="0" y1="60" x2="96" y2="60" spreadMethod="pad">
<stop offset="0%" stop-color="#000000" stop-opacity="0.3"/>
<stop offset="100%" stop-color="#000000" stop-opacity="0.1"/>
</linearGradient><linearGradient id="Gradient_4" gradientUnits="userSpaceOnUse" x1="6" y1="22" x2="92" y2="22" spreadMethod="pad">
<stop offset="0%" stop-color="#000000" stop-opacity="0.3"/>
<stop offset="100%" stop-color="#000000" stop-opacity="0.1"/>
</linearGradient><g id="background">
<path fill="url(#background-gradient)" stroke="none" d=" M 98.1 41.35 L 81.05 11.9 Q 79.1 8.55 75 6.2 70.85 3.8 67.05 3.8 L 32.95 3.8 Q 29.15 3.8 25 6.2 20.9 8.55 18.95 11.9 L 1.9 41.35 Q 0 44.75 0 49.45 0 54.2 1.9 57.6 L 18.95 87.05 Q 20.9 90.4 25 92.75 29.15 95.15 32.95 95.15 L 67.05 95.15 Q 70.85 95.15 75 92.75 79.1 90.4 81.05 87.05 L 98.1 57.6 Q 100 54.2 100 49.45 100 44.75 98.1 41.35 Z"/>
</g><g id="middle-1">
<path fill="url(#Gradient_2)" stroke="none" d=" M 9.85 71.3 L 17.4 84.35 Q 22 82.8 28.15 83.15 35.65 83.65 42.35 86.9 45.05 88.15 48.7 90.55 50.75 91.85 55.5 95.15 L 67.05 95.15 Q 69.7 95.15 72.65 93.95 75.55 92.75 77.85 90.8 L 77.15 90.6 Q 71.7 89.2 64.4 86.1 60.05 84.3 51.2 80.05 36.75 73.15 30.05 71.1 19 67.8 11.6 70.55 10.8 70.8 9.85 71.3 Z"/>

<path fill="url(#Gradient_3)" stroke="none" d=" M 87.15 76.5 L 96.35 60.55 Q 88.65 60.65 80.7 58.5 70.25 55.8 60.35 49.45 50.2 42.95 34.8 42.55 19.65 42.15 7.3 47.8 3.55 49.55 0.1 51.7 0.5 55.1 1.9 57.6 L 4.3 61.7 Q 13.65 57.45 24.3 58.3 36.15 59.35 46.6 66.65 56.7 73.6 67.6 75.8 76.35 77.6 87.15 76.5 Z"/>

<path fill="url(#Gradient_4)" stroke="none" d=" M 92.35 31.5 L 81.05 11.9 Q 80.25 10.5 79 9.25 69.85 8.85 60.55 10.7 54.9 11.8 44.7 14.95 35.4 17.7 30.45 18.7 22.25 20.4 14.2 20.15 L 5.85 34.6 Q 11.15 35.15 16.05 35.15 24.9 35.15 34 33.25 39.4 32.1 49 29.2 58.9 26.2 68.5 26.65 78.5 27.1 92.35 31.5 Z"/>
</g><mask id="mask">
<path fill="#FFFFFF" stroke="none" d=" M 98.1 41.4 L 81.05 11.9 Q 79.1 8.6 75 6.2 70.85 3.85 67.05 3.85 L 32.95 3.85 Q 29.15 3.85 25 6.2 20.9 8.6 18.95 11.9 L 1.9 41.4 Q 0 44.75 0 49.5 0 54.25 1.9 57.6 L 18.95 87.1 Q 20.9 90.45 25 92.8 29.15 95.2 32.95 95.2 L 67.05 95.2 Q 70.85 95.2 75 92.8 79.1 90.45 81.05 87.1 L 98.1 57.6 Q 100 54.25 100 49.5 100 44.75 98.1 41.4 Z"/>
</mask>
			
	<linearGradient id="background-gradient" x1="0" y1="0" y2="1" x2="0" >
		<stop stop-color="#2b053c" offset="0%"/>
		<stop stop-color="#0658d3" offset="100%"/>
	</linearGradient>

			
			
			<g transform="scale(3.3333333333333335) translate(0 -4.470348358154297e-8)" id="picture"><path d="M22 8H8c-.3 0-.5-.2-.5-.5C7.5 3.7 10.7 1 15 1s7.5 2.7 7.5 6.5c0 .3-.2.5-.5.5zM8.5 7h13C21.2 3.6 18 2 15 2c-3.1 0-6.2 1.7-6.5 5z M12 5c-.3 0-.5-.2-.5-.5s.2-.5.5-.5.5.2.5.5-.2.5-.5.5zm6 0c-.3 0-.5-.2-.5-.5s.2-.5.5-.5.5.2.5.5-.2.5-.5.5zm-7-2c-.1 0-.3 0-.4-.1l-2-2c-.2-.2-.2-.5 0-.7s.5-.2.7 0l2 2c.2.2.2.5 0 .7 0 .1-.2.1-.3.1zm8 0c-.1 0-.3 0-.4-.1-.2-.2-.2-.5 0-.7l2-2c.2-.2.5-.2.7 0s.2.5 0 .7l-2 2c0 .1-.2.1-.3.1zm-.5 27c-1.1 0-2-.9-2-2v-5h-3v5c0 1.1-.9 2-2 2s-2-.9-2-2v-5.1c-1.1-.2-2-1.2-2-2.4v-10c0-.3.2-.5.5-.5h14c.3 0 .5.2.5.5v10c0 1.2-.9 2.2-2 2.4V28c0 1.1-.9 2-2 2zM13 22h4c.3 0 .5.2.5.5V28c0 .6.4 1 1 1s1-.4 1-1v-5.5c0-.3.2-.5.5-.5.8 0 1.5-.7 1.5-1.5V11h-13v9.5c0 .8.7 1.5 1.5 1.5.3 0 .5.2.5.5V28c0 .6.4 1 1 1s1-.4 1-1v-5.5c0-.3.2-.5.5-.5zm-9 0c-.8 0-1.5-.7-1.5-1.5v-9c0-.8.7-1.5 1.5-1.5s1.5.7 1.5 1.5v9c0 .8-.7 1.5-1.5 1.5zm0-11c-.3 0-.5.2-.5.5v9c0 .3.2.5.5.5s.5-.2.5-.5v-9c0-.3-.2-.5-.5-.5zm22 11c-.8 0-1.5-.7-1.5-1.5v-9c0-.8.7-1.5 1.5-1.5s1.5.7 1.5 1.5v9c0 .8-.7 1.5-1.5 1.5zm0-11c-.3 0-.5.2-.5.5v9c0 .3.2.5.5.5s.5-.2.5-.5v-9c0-.3-.2-.5-.5-.5z"/></g>
			
	<linearGradient id="picture-gradient" x1="0" y1="0" y2="1" x2="0" >
		<stop stop-color="#acf465" offset="0%"/>
		<stop stop-color="#f4f70c" offset="100%"/>
	</linearGradient>

		</defs>

		

			<use xlink:href="#background" fill="url(#background-gradient)" />

		<use xlink:href="#middle-1" />

			<g mask="url(#mask)">
				<g transform="
				        translate(
                                50 50
)
                            translate(0 0) rotate(145) scale(0.8) scale(-1 1) scale(1 -1)
                            translate(
                                -50 -50
)">
						<use xlink:href="#picture" fill="url(#picture-gradient)"  />
				</g>
			</g>

		



	</svg>
